<svg data-v-fde0c5aa="" xmlns="http://www.w3.org/2000/svg" viewBox="0 0 300 300" class="iconLeft"><!----><defs data-v-fde0c5aa=""><!----></defs><rect data-v-fde0c5aa="" fill="transparent" x="0" y="0" width="300px" height="300px" class="logo-background-square"></rect><defs data-v-fde0c5aa=""><!----></defs><g data-v-fde0c5aa="" id="93c362c8-6e01-4175-b1e9-8ee18c63fbe2" fill="#000000" transform="matrix(2.6422978942362843,0,0,2.6422978942362843,95.62264955244402,120.20809225044255)"><path d="M1.33 6.34L0.32 6.14L0.35 5.89L3.25 5.89L3.22 6.14L2.07 6.32L4.44 13.30L7.01 6.34L5.74 6.14L5.76 5.89L8.43 5.89L8.40 6.14L7.52 6.32L4.50 14.47L4.16 14.57L1.33 6.34ZM10.08 6.24L10.08 6.24Q10.08 5.58 10.51 5.58L10.51 5.58Q10.94 5.58 10.94 6.24L10.94 6.24Q10.94 6.94 10.51 6.94Q10.08 6.94 10.08 6.24ZM11.87 14.40L9.10 14.40L9.19 14.18L10.21 13.99L10.21 9.01L9.17 8.82L9.19 8.63L10.80 8.50L10.86 8.56L10.86 13.99L11.95 14.17L11.87 14.40ZM15.89 14.40L12.63 14.40L12.67 14.19L13.73 14.01L13.73 9.02L12.67 8.83L12.69 8.63L14.27 8.50L14.34 8.56L14.28 10.34L14.34 10.34Q14.57 9.46 15.02 8.91Q15.46 8.37 16.01 8.37L16.01 8.37Q16.34 8.37 16.53 8.51Q16.71 8.66 16.71 8.89L16.71 8.89Q16.71 9.01 16.63 9.15Q16.54 9.29 16.40 9.38L16.40 9.38Q16.22 9.17 16.06 9.09Q15.90 9.00 15.68 9.00L15.68 9.00Q15.41 9.00 15.18 9.22Q14.96 9.44 14.80 9.82Q14.65 10.19 14.55 10.61Q14.45 11.02 14.38 11.50L14.38 11.50L14.38 14.02L15.94 14.15L15.89 14.40ZM18.23 9.21L17.37 9.21L17.37 9.02Q17.71 8.90 17.86 8.82Q18.01 8.74 18.17 8.56Q18.33 8.37 18.42 8.07Q18.50 7.77 18.60 7.23L18.60 7.23L18.89 7.23L18.89 8.86L20.82 8.86L20.77 9.23L18.88 9.23L18.87 12.34Q18.87 13.25 19.08 13.57Q19.28 13.90 19.76 13.90L19.76 13.90Q19.98 13.90 20.27 13.77Q20.55 13.64 20.71 13.51L20.71 13.51L20.88 13.38L20.99 13.61Q20.69 14.04 20.24 14.30Q19.80 14.56 19.37 14.56L19.37 14.56Q18.75 14.56 18.48 14.10Q18.21 13.64 18.21 12.74L18.21 12.74L18.23 9.21ZM22.70 9.02L21.64 8.82L21.66 8.63L23.24 8.50L23.29 8.56L23.29 12.23Q23.29 13.99 24.57 13.99L24.57 13.99Q25.00 13.99 25.42 13.74Q25.85 13.48 26.13 13.15L26.13 13.15L26.13 9.02L25.07 8.82L25.08 8.63L26.70 8.50L26.75 8.56L26.75 12.82Q26.75 13.06 26.76 13.21Q26.76 13.35 26.80 13.52Q26.83 13.69 26.90 13.78Q26.96 13.87 27.08 13.95Q27.20 14.03 27.37 14.05L27.37 14.05L27.79 14.14L27.75 14.38Q27.43 14.52 27.06 14.52L27.06 14.52Q26.65 14.52 26.43 14.25Q26.20 13.98 26.20 13.60L26.20 13.60L26.20 13.49L26.13 13.49Q25.78 14 25.29 14.28Q24.80 14.56 24.29 14.56L24.29 14.56Q22.70 14.56 22.70 12.46L22.70 12.46L22.70 9.02ZM29.19 13.04L29.19 13.04Q29.19 13.47 29.45 13.79Q29.71 14.10 30.15 14.10L30.15 14.10Q30.62 14.10 31.02 13.83Q31.42 13.56 31.67 13.13L31.67 13.13L31.67 11.44Q31.21 11.51 30.88 11.58Q30.55 11.66 30.21 11.78Q29.87 11.90 29.66 12.06Q29.46 12.22 29.32 12.47Q29.19 12.72 29.19 13.04ZM28.51 13.24L28.51 13.24Q28.51 12.37 29.30 11.80Q30.10 11.23 31.67 11.14L31.67 11.14L31.67 10.87Q31.67 9.74 31.40 9.25Q31.12 8.75 30.37 8.75L30.37 8.75Q29.85 8.75 29.62 9.13Q29.39 9.52 29.30 10.23L29.30 10.23Q29.06 10.23 28.90 10.11Q28.74 9.99 28.74 9.78L28.74 9.78Q28.74 9.26 29.38 8.83Q30.02 8.40 30.73 8.40L30.73 8.40Q31.52 8.40 31.90 8.91Q32.29 9.43 32.29 10.51L32.29 10.51L32.29 12.83Q32.29 13.03 32.29 13.14Q32.29 13.24 32.31 13.40Q32.33 13.56 32.36 13.64Q32.40 13.73 32.47 13.83Q32.53 13.92 32.64 13.98Q32.74 14.03 32.89 14.05L32.89 14.05L33.34 14.14L33.30 14.38Q32.98 14.52 32.61 14.52L32.61 14.52Q32.21 14.52 31.99 14.25Q31.76 13.99 31.76 13.60L31.76 13.60L31.76 13.51L31.73 13.51Q31.60 13.88 31.09 14.23Q30.58 14.57 29.93 14.57L29.93 14.57Q29.35 14.57 28.93 14.21Q28.51 13.84 28.51 13.24ZM36.78 14.40L34.01 14.40L34.08 14.18L35.12 13.99L35.12 6.23L34.08 6.04L34.08 5.84L35.69 5.71L35.75 5.77L35.75 13.99L36.86 14.17L36.78 14.40ZM44.50 6.98L43.13 10.75L45.81 10.75L44.50 6.98ZM43.18 14.40L40.45 14.40L40.48 14.11L41.45 13.90L44.45 5.82L44.81 5.73L47.65 13.95L48.55 14.08L48.49 14.39L45.70 14.39L45.76 14.10L46.89 13.90L45.94 11.13L42.99 11.13L41.98 13.95L43.24 14.08L43.18 14.40ZM51.98 14.40L49.21 14.40L49.27 14.18L50.32 13.99L50.32 6.23L49.27 6.04L49.27 5.84L50.89 5.71L50.95 5.77L50.95 13.99L52.06 14.17L51.98 14.40ZM55.46 14.40L52.68 14.40L52.75 14.18L53.80 13.99L53.80 6.23L52.75 6.04L52.75 5.84L54.37 5.71L54.43 5.77L54.43 13.99L55.54 14.17L55.46 14.40ZM56.16 16.35L56.16 16.35Q56.16 16.03 56.38 15.84L56.38 15.84Q56.59 16.03 56.84 16.11Q57.09 16.19 57.51 16.19L57.51 16.19Q57.85 16.19 58.20 15.84Q58.54 15.48 58.84 14.72L58.84 14.72L59.01 14.23L57.17 9.03L56.32 8.84L56.36 8.60L58.73 8.60L58.71 8.82L57.85 9.00L59.39 13.25L61.05 9.03L60.17 8.84L60.21 8.60L62.21 8.60L62.20 8.82L61.51 9.03L59.25 14.76Q58.80 15.93 58.33 16.45Q57.86 16.97 57.09 16.97L57.09 16.97Q56.69 16.97 56.42 16.81Q56.16 16.65 56.16 16.35Z"></path></g><defs data-v-fde0c5aa=""><linearGradient data-v-fde0c5aa="" gradientTransform="rotate(25)" id="bd4c8c10-a5fe-4fb7-9bf6-698748be3c57" x1="0%" y1="0%" x2="100%" y2="0%"><stop data-v-fde0c5aa="" offset="0%" stop-color="#49247E" stop-opacity="1"></stop><stop data-v-fde0c5aa="" offset="100%" stop-color="#AA49C7" stop-opacity="1"></stop></linearGradient></defs><g data-v-fde0c5aa="" id="1cbefa13-32af-4eea-812b-4e14a505b3c2" stroke="none" fill="url(#bd4c8c10-a5fe-4fb7-9bf6-698748be3c57)" transform="matrix(0.4826527582891141,0,0,0.4826527582891141,37.19047571451407,125.2718582396323)"><path d="M51.121 14.5C33.662 14.5 19.5 29.5 19.5 48c0 16.64 11.451 30.44 26.451 33.05.881.16 1.771.271 2.67.34 1.57-3.47 5.071-5.899 9.131-5.899a9.964 9.964 0 016.92 2.79c.82-.41 1.609-.851 2.379-1.34C76.441 71.14 82.752 60.35 82.752 48c0-18.5-14.16-33.5-31.631-33.5z"></path><path d="M67.621 87.24c-.82 4.71-4.93 8.3-9.869 8.3-5.531 0-10.02-4.5-10.02-10.03 0-1.47.318-2.859.889-4.12 1.57-3.47 5.071-5.899 9.131-5.899a9.964 9.964 0 016.92 2.79 9.95 9.95 0 012.83 4.91c.859-.171 1.689-.4 2.49-.681a12.572 12.572 0 00-12.24-9.67c-5.41 0-10.03 3.42-11.801 8.21-.5 1.36-.779 2.83-.779 4.37 0 6.95 5.629 12.58 12.581 12.58 6.549 0 11.92-4.99 12.52-11.38-.871.26-1.761.47-2.652.62z"></path><path d="M9.291 40.74c2.67-25.23 22.48-36.46 41.481-36.27 2.33.02 4.67.2 6.98.58 3.16.51 6.26 1.31 9.26 2.46 1.43.55 2.82 1.16 4.17 1.86 11.189 5.65 19.859 16.15 20.93 31.21l3.77 15.92c0 2.24-.709 4.1-2.939 4.47-.83 2.28-2.801 7.101-6.07 12.04-4.719 7.13-10.379 11.76-16.6 13.61-.869.26-1.76.47-2.65.62-.82 4.71-4.93 8.3-9.869 8.3-5.531 0-10.02-4.5-10.02-10.03 0-1.47.318-2.859.889-4.12 1.57-3.47 5.071-5.899 9.131-5.899a9.964 9.964 0 016.92 2.79 9.95 9.95 0 012.83 4.91c.859-.171 1.689-.4 2.49-.681 10.41-3.649 16.43-16.029 18.639-21.47h-3.059V40.58h2.789c-.9-10.88-7.02-22.14-18.721-28.08a33.615 33.615 0 00-3.809-1.67 41.965 41.965 0 00-8.6-2.16 51.265 51.265 0 00-6.48-.45h-.301c-16.99 0-34.701 9.99-37.371 32.36h3.051v20.46h-5.541c-2.629 0-4.77-2.03-4.77-4.54"></path></g><!----></svg>